<?xml version="1.0" standalone="no"?>
<!DOCTYPE svg PUBLIC "-//W3C//DTD SVG 20010904//EN"
 "http://www.w3.org/TR/2001/REC-SVG-20010904/DTD/svg10.dtd">
<svg version="1.0" xmlns="http://www.w3.org/2000/svg"
 width="263.000000pt" height="84.000000pt" viewBox="0 0 263.000000 84.000000"
 preserveAspectRatio="xMidYMid meet">

<g transform="translate(0.000000,84.000000) scale(0.100000,-0.100000)"
fill="#000000" stroke="none">
<path d="M2011 497 c-61 -96 -111 -177 -111 -181 0 -3 25 -6 55 -6 54 0 55 0
55 29 0 16 -5 31 -11 33 -14 5 108 98 127 98 7 0 16 -4 19 -10 3 -5 19 -10 36
-10 22 0 29 -5 29 -19 0 -11 12 -29 28 -40 15 -11 21 -21 15 -21 -8 0 -13 -13
-13 -30 l0 -30 76 0 c57 0 74 3 68 13 -4 6 -54 87 -112 179 -86 135 -109 165
-120 156 -10 -9 -15 -9 -21 1 -6 8 -46 -47 -120 -162z"/>
<path d="M265 635 c-16 -15 -25 -36 -25 -55 0 -28 2 -30 40 -30 36 0 40 3 40
25 0 14 5 25 10 25 6 0 10 -16 10 -35 0 -31 -4 -37 -47 -57 l-48 -23 -3 -61
c-2 -48 1 -66 17 -85 17 -21 27 -24 94 -24 102 0 117 13 117 106 0 62 -2 70
-25 85 -21 14 -25 24 -25 64 0 41 -4 52 -26 69 -38 30 -98 28 -129 -4z m125
-190 c15 -19 6 -61 -16 -69 -27 -10 -53 3 -60 30 -8 30 11 54 41 54 12 0 28
-7 35 -15z"/>
<path d="M533 645 c-22 -16 -23 -22 -23 -176 l0 -159 35 0 34 0 3 143 c3 118
5 142 18 142 11 0 16 -14 18 -57 l3 -58 34 0 34 0 3 58 c2 43 7 57 18 57 13 0
15 -24 18 -142 l3 -143 39 0 40 0 0 150 c0 148 0 151 -26 176 -22 23 -31 25
-72 20 -57 -7 -56 -7 -112 0 -32 4 -51 1 -67 -11z"/>
<path d="M1212 653 c-16 -6 -42 -57 -42 -83 0 -17 6 -20 40 -20 36 0 40 2 40
26 0 36 24 25 28 -13 3 -28 -1 -32 -43 -48 -53 -21 -65 -38 -65 -94 0 -82 32
-111 125 -111 42 0 60 5 80 23 47 40 47 152 0 177 -21 11 -25 21 -25 61 0 39
-4 51 -26 68 -25 20 -80 27 -112 14z m106 -205 c21 -21 14 -57 -13 -70 -22
-10 -29 -9 -47 10 -19 18 -20 25 -10 47 13 27 49 34 70 13z"/>
<path d="M1466 637 c-26 -26 -26 -28 -26 -177 l0 -150 40 0 39 0 3 143 c3 134
4 142 23 142 19 0 20 -8 23 -142 l3 -143 39 0 40 0 0 149 c0 183 -4 192 -98
199 -55 4 -63 2 -86 -21z"/>
<path d="M1730 630 c0 -22 12 -43 40 -74 37 -40 40 -47 40 -103 0 -32 -5 -64
-11 -70 -21 -21 -39 -3 -39 38 0 39 0 39 -40 39 l-40 0 0 -50 c0 -36 5 -55 20
-70 41 -41 129 -39 168 5 19 23 22 37 22 114 l0 87 -40 39 c-22 21 -40 47 -40
57 0 14 -8 18 -40 18 -38 0 -40 -2 -40 -30z"/>
<path d="M1007 631 c-3 -11 -26 -35 -53 -53 -26 -18 -62 -46 -81 -62 -33 -28
-33 -29 -33 -117 l0 -89 40 0 39 0 3 73 c3 73 20 99 26 40 3 -31 6 -33 42 -33
36 0 39 2 42 33 5 55 23 30 28 -40 l5 -68 38 -3 37 -3 0 80 c0 107 -15 124
-100 119 -69 -4 -83 5 -42 26 53 27 92 66 92 92 0 21 -4 24 -39 24 -30 0 -40
-4 -44 -19z"/>
<path d="M2090 335 c0 -21 5 -25 30 -25 25 0 30 4 30 25 0 21 -5 25 -30 25
-25 0 -30 -4 -30 -25z"/>
<path d="M1456 222 c-14 -23 -26 -44 -26 -47 0 -3 25 -5 55 -5 l56 0 -15 28
c-8 15 -21 36 -29 46 -14 19 -16 18 -41 -22z"/>
<path d="M246 241 c-3 -5 3 -7 14 -4 11 3 20 0 20 -6 0 -6 -9 -11 -20 -11 -15
0 -20 -7 -20 -25 0 -20 5 -25 26 -25 23 0 25 3 22 37 -3 37 -28 57 -42 34z
m34 -46 c0 -8 -7 -15 -15 -15 -8 0 -15 7 -15 15 0 8 7 15 15 15 8 0 15 -7 15
-15z"/>
<path d="M360 241 c8 -6 18 -7 22 -5 4 3 8 1 8 -4 0 -5 -9 -12 -20 -15 -31 -8
-27 -47 5 -47 23 0 25 4 25 40 0 37 -2 40 -27 40 -21 0 -24 -3 -13 -9z m30
-46 c0 -8 -7 -15 -15 -15 -8 0 -15 7 -15 15 0 8 7 15 15 15 8 0 15 -7 15 -15z"/>
<path d="M465 233 c-5 -15 -4 -16 6 -5 22 21 31 13 27 -23 -2 -19 0 -35 4 -35
4 0 8 18 8 40 0 33 -4 40 -19 40 -10 0 -22 -8 -26 -17z"/>
<path d="M588 243 c6 -2 18 -2 25 0 6 3 1 5 -13 5 -14 0 -19 -2 -12 -5z"/>
<path d="M690 233 c0 -14 2 -15 9 -4 5 7 14 10 20 7 6 -4 11 -2 11 3 0 6 -9
11 -20 11 -12 0 -20 -7 -20 -17z"/>
<path d="M816 238 c3 -10 1 -18 -5 -18 -6 0 -11 -11 -11 -25 0 -20 5 -25 25
-25 31 0 33 25 5 60 -12 15 -18 18 -14 8z m24 -43 c0 -8 -7 -15 -15 -15 -8 0
-15 7 -15 15 0 8 7 15 15 15 8 0 15 -7 15 -15z"/>
<path d="M914 236 c-9 -24 0 -61 16 -62 9 0 10 1 3 3 -18 6 -17 63 1 63 8 0
17 -10 19 -22 5 -20 5 -20 4 2 -2 28 -34 40 -43 16z"/>
<path d="M1027 244 c-10 -10 -9 -62 1 -68 4 -2 6 11 4 30 -5 39 14 47 28 12
l9 -23 0 23 c1 12 6 22 12 22 7 0 10 -14 7 -35 -2 -19 0 -35 5 -35 4 0 7 17 5
38 -3 33 -6 37 -33 40 -17 2 -34 0 -38 -4z"/>
<path d="M1175 238 c4 -11 2 -18 -4 -18 -6 0 -11 -11 -11 -25 0 -20 5 -25 25
-25 32 0 34 31 4 63 -15 17 -19 18 -14 5z m25 -43 c0 -8 -7 -15 -15 -15 -8 0
-15 7 -15 15 0 8 7 15 15 15 8 0 15 -7 15 -15z"/>
<path d="M1290 241 c0 -5 5 -13 10 -16 15 -9 12 -45 -4 -45 -8 0 -17 6 -19 13
-3 7 -6 5 -6 -5 -1 -13 7 -18 24 -18 20 0 25 5 25 26 0 14 -7 32 -15 40 -8 9
-15 11 -15 5z"/>
<path d="M1657 243 c-15 -14 -6 -33 16 -32 18 1 18 2 4 6 -11 3 -16 11 -13 19
6 15 3 18 -7 7z"/>
<path d="M1761 233 c0 -11 3 -13 6 -5 9 23 23 12 23 -19 0 -24 -4 -30 -15 -25
-8 3 -15 1 -15 -4 0 -6 9 -10 20 -10 17 0 20 7 20 40 0 33 -3 40 -20 40 -13 0
-20 -6 -19 -17z"/>
<path d="M1870 240 c0 -5 6 -7 14 -4 8 3 17 1 21 -5 3 -7 -3 -11 -17 -12 -20
-1 -21 -2 -3 -6 11 -3 23 -10 27 -17 9 -14 11 15 2 38 -7 17 -44 22 -44 6z"/>
<path d="M1980 239 c0 -4 6 -6 14 -3 9 4 16 -3 19 -18 l4 -23 2 23 c0 12 6 22
12 22 7 0 10 -14 7 -35 -2 -19 0 -35 4 -35 4 0 8 18 8 39 0 38 -1 39 -35 39
-19 0 -35 -4 -35 -9z"/>
<path d="M2117 243 c-4 -3 -7 -21 -7 -40 0 -29 3 -33 25 -33 20 0 25 5 25 25
0 18 -5 25 -20 25 -27 0 -25 18 3 23 20 4 20 4 1 6 -11 0 -24 -2 -27 -6z m33
-48 c0 -8 -7 -15 -15 -15 -8 0 -15 7 -15 15 0 8 7 15 15 15 8 0 15 -7 15 -15z"/>
<path d="M2248 225 c2 -14 6 -25 8 -25 2 0 4 11 4 25 0 14 -4 25 -9 25 -4 0
-6 -11 -3 -25z"/>
<path d="M2347 243 c-10 -9 -9 -61 1 -67 4 -2 6 11 4 30 -3 26 0 34 11 34 11
0 17 -12 20 -37 l4 -38 1 43 c2 35 -1 42 -16 42 -10 0 -22 -3 -25 -7z"/>
<path d="M2222 208 c-2 -36 0 -38 28 -38 28 0 30 2 28 38 -1 36 -1 36 -5 5 -3
-24 -9 -33 -23 -33 -14 0 -20 9 -23 33 -4 31 -4 31 -5 -5z"/>
<path d="M572 201 c2 -20 9 -26 28 -28 22 -1 22 -1 3 4 -13 2 -23 11 -23 20 0
10 6 14 20 10 11 -3 20 -2 20 3 0 4 -11 10 -26 13 -22 4 -25 1 -22 -22z"/>
<path d="M690 188 c0 -12 7 -18 23 -17 15 0 17 2 7 6 -8 3 -18 11 -22 17 -5 7
-8 4 -8 -6z"/>
<path d="M1878 173 c6 -2 18 -2 25 0 6 3 1 5 -13 5 -14 0 -19 -2 -12 -5z"/>
</g>
</svg>
